<svg width="800" height="600" xmlns="http://www.w3.org/2000/svg">
 <!-- Created with Method Draw - http://github.com/duopixel/Method-Draw/ -->
 <g>
  <title>background</title>
  <rect fill="#fff" id="canvas_background" height="602" width="802" y="-1" x="-1"/>
  <g display="none" overflow="visible" y="0" x="0" height="100%" width="100%" id="canvasGrid">
   <rect fill="url(#gridpattern)" stroke-width="0" y="0" x="0" height="100%" width="100%"/>
  </g>
 </g>
 <g>
  <title>Layer 1</title>
  <path d="m324.5,181.5c-1,0 -6.40073,-1.32454 -15,2c-7.51984,2.90723 -14.34506,3.91873 -19,6c-9.12906,4.0817 -12.25943,5.24979 -19,10c-2.94724,2.07697 -8,7 -12,11c-3,3 -5.14774,6.94341 -7,12c-2.17538,5.93866 -5.09544,11.97734 -6,16c-1.11867,4.97479 -1,7 -1,12c0,8 -0.15112,13.0466 3,23c0.95445,3.0148 3.72398,9.22272 7,13c2.77979,3.20511 7.13904,6.86713 10,10c5.26675,5.76727 12,10 22,19c10,9 23.3569,18.97125 45,29c9.47278,4.38937 24.96262,6.49939 35,7c12.98386,0.64758 24,0 31,0c7,0 11.17181,-2.05484 15,-8c4.62561,-7.18359 8.29349,-18.88138 11,-26c1.12381,-2.95584 2,-10 2,-18c0,-3 1.70599,-9.46719 -1,-16c-3.82684,-9.2388 -8.33749,-14.31 -10,-17c-8.92197,-14.43602 -17.81213,-13.38255 -23,-17c-5.25232,-3.66238 -9.87332,-7.43036 -16,-9c-10.83054,-2.77475 -19.59311,-3.47554 -28,-5c-6.88766,-1.24898 -10.04291,-0.28978 -11,0c-3.45084,1.04483 -6.49622,6.90779 -7,11c-0.36655,2.97752 -2,6 0,6c1,0 4.79782,-8.63715 10,-17c4.1254,-6.63184 8,-11 9,-12l1,-1" id="svg_1" stroke-width="1.5" stroke="#000" fill="none"/>
 </g>
</svg>